<?xml version="1.0" standalone="no"?>
<!DOCTYPE svg PUBLIC "-//W3C//DTD SVG 20010904//EN"
 "http://www.w3.org/TR/2001/REC-SVG-20010904/DTD/svg10.dtd">
<svg version="1.0" xmlns="http://www.w3.org/2000/svg"
 width="325.000000pt" height="260.000000pt" viewBox="0 0 325.000000 260.000000"
 preserveAspectRatio="xMidYMid meet">

<g transform="translate(0.000000,260.000000) scale(0.100000,-0.100000)"
fill="#000000" stroke="none">
<path d="M1407 2172 c-25 -27 -21 -67 8 -90 24 -19 25 -25 25 -121 l0 -101
-34 -14 c-106 -44 -218 -152 -270 -259 -105 -215 -51 -398 128 -438 l54 -12 4
-109 c3 -106 4 -111 31 -134 41 -35 99 -33 138 5 28 29 29 32 29 135 l0 106
105 0 105 0 0 -106 c0 -103 1 -106 29 -135 39 -38 97 -40 138 -5 27 23 28 28
31 135 4 107 5 111 26 111 54 0 124 31 159 69 47 52 61 99 54 185 -14 183
-135 360 -303 442 l-54 26 0 100 c0 95 1 101 25 120 30 23 33 67 7 91 -16 15
-47 17 -219 17 -181 0 -201 -2 -216 -18z m259 -323 c9 -15 -11 -33 -30 -26 -9
4 -13 13 -10 22 7 17 30 20 40 4z m-132 -141 c15 -24 -13 -53 -43 -43 -21 6
-29 43 -14 59 12 12 45 2 57 -16z m248 -62 c15 -21 8 -55 -13 -66 -26 -14 -69
11 -69 40 0 39 60 58 82 26z m-297 -87 c33 -16 86 -43 118 -61 112 -62 223
-43 311 52 20 22 41 40 46 40 33 0 90 -145 90 -229 0 -38 -5 -52 -26 -72 l-26
-24 -341 -3 c-225 -2 -355 0 -379 8 -75 22 -95 88 -62 199 37 126 129 157 269
90z"/>
<path d="M1335 1476 c-19 -29 -8 -61 26 -71 41 -13 78 52 47 83 -20 20 -56 14
-73 -12z"/>
<path d="M1906 1407 c-28 -21 -18 -69 18 -82 24 -8 31 -6 47 13 19 24 16 49
-9 70 -20 15 -34 15 -56 -1z"/>
<path d="M1625 1377 c-10 -8 -16 -23 -13 -38 2 -19 9 -24 33 -24 25 0 31 4 33
27 4 34 -26 54 -53 35z"/>
<path d="M1235 738 c-3 -8 -4 -61 -3 -119 3 -96 4 -104 23 -104 19 0 20 7 20
115 0 101 -2 115 -18 118 -9 2 -19 -3 -22 -10z"/>
<path d="M2955 738 c-3 -8 -4 -61 -3 -119 3 -96 4 -104 23 -104 17 0 20 8 23
47 2 25 10 52 18 58 23 20 43 -5 46 -58 3 -39 6 -47 23 -47 18 0 20 8 23 64 4
90 -30 124 -85 86 -21 -15 -22 -14 -25 32 -2 36 -7 49 -21 51 -9 2 -19 -3 -22
-10z"/>
<path d="M133 713 c-7 -2 -13 -9 -13 -15 0 -6 -8 -17 -17 -24 -17 -13 -17 -15
0 -28 12 -9 17 -27 17 -63 0 -58 12 -73 57 -73 38 0 45 23 13 40 -15 8 -20 21
-20 49 0 30 4 40 20 44 25 7 26 27 1 34 -11 3 -21 13 -24 24 -5 19 -12 22 -34
12z"/>
<path d="M603 713 c-7 -2 -13 -9 -13 -15 0 -6 -8 -17 -17 -24 -17 -13 -17 -15
0 -28 12 -9 17 -27 17 -63 0 -58 12 -73 57 -73 38 0 45 23 13 40 -15 8 -20 21
-20 49 0 30 4 40 20 44 25 7 26 27 1 34 -11 3 -21 13 -24 24 -5 19 -12 22 -34
12z"/>
<path d="M1953 713 c-7 -2 -13 -11 -13 -18 0 -16 -35 -29 -50 -20 -6 4 -17 1
-25 -5 -12 -10 -18 -10 -30 0 -26 22 -36 -2 -33 -81 3 -66 5 -74 23 -74 17 0
21 8 25 49 4 42 9 52 35 66 44 25 55 16 55 -44 0 -61 12 -76 57 -76 38 0 45
23 13 40 -15 8 -20 21 -20 49 0 30 4 40 20 44 25 7 26 27 1 34 -11 3 -21 13
-24 24 -5 19 -12 22 -34 12z"/>
<path d="M273 670 c-50 -20 -60 -105 -17 -139 41 -32 124 -23 124 14 0 20 -20
29 -33 16 -16 -16 -54 -14 -60 4 -5 11 6 15 51 17 69 4 79 23 34 68 -31 30
-59 36 -99 20z m65 -47 c2 -9 -7 -13 -28 -13 -28 0 -31 2 -20 15 15 18 41 16
48 -2z"/>
<path d="M440 667 c-18 -9 -25 -21 -25 -42 0 -26 5 -32 43 -43 54 -18 56 -37
3 -28 -43 7 -60 -6 -41 -29 13 -15 75 -20 105 -9 23 9 38 53 24 70 -6 8 -29
19 -50 24 -48 13 -42 33 7 24 29 -5 34 -4 34 14 0 31 -56 42 -100 19z"/>
<path d="M783 665 c-8 -22 17 -132 33 -146 8 -6 25 -8 39 -5 20 5 26 15 31 46
7 43 24 55 24 17 0 -50 52 -86 78 -54 6 6 17 39 26 72 13 51 13 62 2 74 -21
21 -33 6 -47 -57 -7 -33 -14 -49 -17 -37 -12 63 -24 94 -38 99 -25 10 -41 -10
-55 -67 l-13 -52 -9 50 c-11 67 -39 98 -54 60z"/>
<path d="M1071 663 c-15 -13 -18 -22 -12 -33 8 -12 14 -12 34 -1 25 13 47 9
47 -10 0 -5 -11 -9 -24 -9 -65 0 -98 -36 -71 -76 16 -25 57 -32 84 -15 9 6 21
5 33 -2 26 -16 38 5 38 66 0 38 -5 53 -25 72 -29 30 -74 33 -104 8z m67 -95
c-5 -15 -48 -24 -48 -10 0 14 12 22 33 22 10 0 17 -5 15 -12z"/>
<path d="M1324 667 c-3 -8 -4 -45 -2 -83 3 -61 5 -69 23 -69 17 0 20 8 23 47
6 88 51 88 62 0 4 -39 9 -47 25 -47 17 0 20 8 23 47 6 88 51 88 62 0 4 -39 9
-47 25 -47 18 0 20 8 23 65 3 57 0 67 -19 82 -26 22 -47 23 -70 2 -16 -15 -20
-15 -41 0 -28 20 -52 20 -68 1 -12 -14 -15 -14 -30 0 -20 19 -29 19 -36 2z"/>
<path d="M1641 663 c-15 -13 -18 -22 -12 -33 8 -12 14 -12 34 -1 25 13 47 9
47 -10 0 -5 -11 -9 -24 -9 -65 0 -98 -36 -71 -76 16 -25 57 -32 84 -15 9 6 21
5 33 -2 26 -16 38 5 38 66 0 38 -5 53 -25 72 -29 30 -74 33 -104 8z m67 -95
c-5 -15 -48 -24 -48 -10 0 14 12 22 33 22 10 0 17 -5 15 -12z"/>
<path d="M2160 667 c-18 -9 -25 -21 -25 -42 0 -26 5 -32 43 -43 54 -18 56 -37
3 -28 -43 7 -60 -6 -41 -29 13 -15 75 -20 105 -9 23 9 38 53 24 70 -6 8 -29
19 -50 24 -48 13 -42 33 7 24 29 -5 34 -4 34 14 0 31 -56 42 -100 19z"/>
<path d="M2333 670 c-50 -20 -60 -105 -17 -139 41 -32 124 -23 124 14 0 20
-20 29 -33 16 -16 -16 -54 -14 -60 4 -5 11 6 15 51 17 69 4 79 23 34 68 -31
30 -59 36 -99 20z m65 -47 c2 -9 -7 -13 -28 -13 -28 0 -31 2 -20 15 15 18 41
16 48 -2z"/>
<path d="M2501 663 c-15 -13 -18 -22 -12 -33 8 -12 14 -12 34 -1 25 13 47 9
47 -10 0 -5 -11 -9 -24 -9 -65 0 -98 -36 -71 -76 16 -25 57 -32 84 -15 9 6 21
5 33 -2 26 -16 38 5 38 66 0 38 -5 53 -25 72 -29 30 -74 33 -104 8z m67 -95
c-5 -15 -48 -24 -48 -10 0 14 12 22 33 22 10 0 17 -5 15 -12z"/>
<path d="M2664 667 c-3 -8 -4 -45 -2 -83 3 -61 5 -69 23 -69 17 0 21 8 25 50
4 42 9 52 33 63 15 7 27 19 27 26 0 19 -30 29 -47 15 -10 -9 -17 -9 -25 -1
-16 16 -27 15 -34 -1z"/>
<path d="M2815 668 c-32 -17 -45 -39 -45 -79 0 -29 6 -42 26 -58 41 -32 124
-23 124 14 0 22 -16 26 -45 13 -24 -11 -29 -10 -41 7 -18 24 -18 36 0 60 12
17 17 18 39 6 27 -15 47 -8 47 15 0 28 -68 43 -105 22z"/>
</g>
</svg>
