<?xml version="1.0" standalone="no"?>
<!DOCTYPE svg PUBLIC "-//W3C//DTD SVG 20010904//EN"
 "http://www.w3.org/TR/2001/REC-SVG-20010904/DTD/svg10.dtd">
<svg version="1.0" xmlns="http://www.w3.org/2000/svg"
 width="325.000000pt" height="260.000000pt" viewBox="0 0 325.000000 260.000000"
 preserveAspectRatio="xMidYMid meet">

<g transform="translate(0.000000,260.000000) scale(0.100000,-0.100000)"
fill="#000000" stroke="none">
<path d="M1490 2194 c-93 -25 -161 -65 -238 -141 -81 -80 -132 -173 -151 -277
-16 -86 -16 -86 27 -86 l38 0 12 63 c34 181 199 343 371 364 l51 6 0 43 c0 41
-2 44 -27 43 -16 0 -53 -7 -83 -15z"/>
<path d="M1650 2168 l0 -45 51 -6 c172 -21 337 -183 371 -364 l12 -63 38 0
c43 0 43 0 27 86 -40 219 -230 401 -450 430 l-49 7 0 -45z"/>
<path d="M1094 1618 c22 -108 33 -143 66 -215 84 -182 235 -356 393 -453 l47
-30 0 149 0 148 -51 6 c-169 20 -335 181 -370 358 l-12 59 -38 0 c-36 0 -39
-2 -35 -22z"/>
<path d="M2071 1581 c-35 -177 -201 -338 -370 -358 l-51 -6 0 -149 c0 -170 -9
-162 98 -84 79 59 165 145 232 232 62 82 144 248 160 324 6 30 13 65 16 78 4
20 1 22 -35 22 l-38 0 -12 -59z"/>
<path d="M1250 650 l0 -130 25 0 25 0 0 130 0 130 -25 0 -25 0 0 -130z"/>
<path d="M2980 650 l0 -130 30 0 29 0 3 83 c2 65 6 82 18 82 12 0 16 -17 18
-82 l3 -83 29 0 30 0 0 74 c0 106 -9 126 -60 126 -38 0 -40 2 -40 30 0 27 -3
30 -30 30 l-30 0 0 -130z"/>
<path d="M102 643 l3 -118 43 -3 c32 -2 42 0 42 12 0 8 -9 18 -20 21 -17 5
-20 15 -20 71 0 57 2 64 20 64 11 0 20 6 20 14 0 7 -9 16 -20 19 -11 3 -20 12
-20 21 0 10 -9 16 -25 16 l-26 0 3 -117z"/>
<path d="M582 643 l3 -118 43 -3 c32 -2 42 0 42 12 0 8 -9 18 -20 21 -17 5
-20 15 -20 71 0 57 2 64 20 64 11 0 20 6 20 14 0 7 -9 16 -20 19 -11 3 -20 12
-20 21 0 10 -9 16 -25 16 l-26 0 3 -117z"/>
<path d="M1921 668 c1 -132 5 -142 57 -146 32 -2 42 0 42 12 0 8 -9 18 -20 21
-17 5 -20 15 -20 71 0 57 2 64 20 64 11 0 20 6 20 14 0 7 -9 16 -20 19 -11 3
-20 12 -20 21 0 11 -9 16 -30 16 l-30 0 1 -92z"/>
<path d="M224 707 c-3 -8 -4 -52 -2 -98 l3 -84 63 -3 c59 -3 63 -2 72 23 13
35 14 35 -16 35 -15 0 -32 -7 -39 -17 -16 -21 -35 -9 -35 23 0 22 4 24 50 24
49 0 50 1 50 29 0 16 -4 41 -10 55 -9 24 -14 26 -70 26 -41 0 -62 -4 -66 -13z
m84 -45 c2 -14 -2 -22 -12 -22 -19 0 -29 17 -22 36 8 22 30 12 34 -14z"/>
<path d="M400 701 c-28 -53 -3 -99 55 -103 28 -2 41 -8 43 -20 4 -20 -35 -35
-51 -19 -11 11 -57 16 -57 5 0 -3 5 -14 10 -25 9 -15 22 -19 63 -19 61 0 77
12 77 56 0 54 -8 64 -51 64 -42 0 -62 21 -40 43 9 9 16 9 31 -1 26 -16 60 -15
60 1 0 25 -25 37 -77 37 -41 0 -54 -4 -63 -19z"/>
<path d="M763 703 c3 -10 13 -55 23 -100 l17 -83 33 0 c28 0 35 4 40 28 21 92
20 91 30 32 9 -54 10 -55 45 -58 l36 -3 17 87 c10 47 20 93 23 101 4 11 -1 14
-23 11 -28 -3 -29 -6 -40 -73 -10 -70 -15 -70 -29 5 -12 67 -15 71 -43 68 -23
-3 -28 -9 -34 -48 -16 -96 -21 -100 -32 -25 -11 66 -13 70 -39 73 -24 3 -28 0
-24 -15z"/>
<path d="M1064 706 c-3 -7 -4 -51 -2 -97 l3 -84 73 -2 72 -2 0 99 0 98 -70 1
c-50 0 -72 -3 -76 -13z m81 -87 c0 -50 -3 -64 -15 -64 -11 0 -16 14 -18 54 -4
61 3 84 21 78 8 -2 12 -25 12 -68z"/>
<path d="M1330 620 l0 -100 30 0 30 0 0 79 c0 48 4 83 11 87 19 12 29 -19 29
-93 0 -71 1 -73 25 -73 24 0 24 2 27 83 2 65 6 82 18 82 12 0 16 -17 18 -82 3
-81 3 -83 27 -83 25 0 25 1 25 89 0 59 -4 92 -13 99 -6 6 -60 11 -120 11
l-107 1 0 -100z"/>
<path d="M1625 709 c-12 -19 -17 -114 -8 -149 l9 -35 72 -2 72 -2 0 99 0 98
-70 1 c-38 0 -72 -4 -75 -10z m80 -90 c0 -50 -3 -64 -15 -64 -11 0 -16 14 -18
54 -4 61 3 84 21 78 8 -2 12 -25 12 -68z"/>
<path d="M1800 620 l0 -100 30 0 30 0 0 76 c0 67 2 76 20 81 11 3 20 14 20 24
0 16 -8 19 -50 19 l-50 0 0 -100z"/>
<path d="M2130 701 c-28 -53 -3 -99 55 -103 28 -2 41 -8 43 -20 4 -20 -35 -35
-51 -19 -11 11 -57 16 -57 5 0 -3 5 -14 10 -25 9 -15 22 -19 63 -19 61 0 77
12 77 56 0 54 -8 64 -51 64 -42 0 -62 21 -40 43 9 9 16 9 31 -1 26 -16 60 -15
60 1 0 25 -25 37 -77 37 -41 0 -54 -4 -63 -19z"/>
<path d="M2312 703 c-4 -10 -7 -47 -7 -83 0 -96 3 -100 75 -100 56 0 61 2 70
26 13 34 14 34 -16 34 -15 0 -32 -7 -39 -17 -16 -21 -35 -9 -35 23 0 22 4 24
50 24 49 0 50 1 50 29 0 16 -4 41 -10 55 -9 24 -14 26 -70 26 -48 0 -62 -4
-68 -17z m86 -41 c2 -14 -2 -22 -12 -22 -19 0 -29 17 -22 36 8 22 30 12 34
-14z"/>
<path d="M2495 709 c-12 -19 -17 -114 -8 -149 l9 -35 72 -2 72 -2 0 99 0 98
-70 1 c-38 0 -72 -4 -75 -10z m80 -90 c0 -50 -3 -64 -15 -64 -11 0 -16 14 -18
54 -4 61 3 84 21 78 8 -2 12 -25 12 -68z"/>
<path d="M2670 620 l0 -100 30 0 30 0 0 76 c0 67 2 76 20 81 11 3 20 14 20 24
0 16 -8 19 -50 19 l-50 0 0 -100z"/>
<path d="M2802 703 c-9 -23 -9 -143 0 -165 6 -14 20 -18 68 -18 56 0 61 2 70
26 15 38 13 44 -19 44 -21 0 -30 -6 -34 -21 -3 -12 -12 -19 -19 -17 -9 3 -13
25 -13 68 0 43 4 65 13 68 7 2 16 -5 19 -17 4 -15 13 -21 34 -21 32 0 34 6 19
44 -9 24 -14 26 -70 26 -48 0 -62 -4 -68 -17z"/>
</g>
</svg>
