<?xml version="1.0" standalone="no"?>
<!DOCTYPE svg PUBLIC "-//W3C//DTD SVG 20010904//EN"
 "http://www.w3.org/TR/2001/REC-SVG-20010904/DTD/svg10.dtd">
<svg version="1.0" xmlns="http://www.w3.org/2000/svg"
 width="325.000000pt" height="260.000000pt" viewBox="0 0 325.000000 260.000000"
 preserveAspectRatio="xMidYMid meet">

<g transform="translate(0.000000,260.000000) scale(0.100000,-0.100000)"
fill="#000000" stroke="none">
<path d="M1837 2126 l-25 -53 -49 4 c-26 2 -53 0 -59 -4 -6 -4 -25 -39 -42
-78 l-31 -70 -65 -7 c-209 -24 -378 -168 -440 -377 -23 -77 -21 -213 4 -292
76 -248 340 -407 590 -355 364 76 534 467 342 786 l-39 64 33 73 34 74 -40 42
-39 43 24 53 c14 29 25 55 25 57 0 1 -21 13 -47 25 -27 11 -71 32 -99 44 l-51
23 -26 -52z m-213 -625 c27 -11 78 -48 114 -82 79 -74 167 -119 234 -119 l47
0 -14 -40 c-32 -91 -113 -178 -211 -226 -54 -27 -68 -29 -169 -29 -99 0 -116
3 -168 27 -79 37 -161 117 -197 194 -17 34 -30 69 -30 78 0 28 70 128 122 174
62 55 178 65 272 23z"/>
<path d="M1220 649 c0 -130 0 -130 23 -127 21 3 22 7 25 131 l3 127 -26 0 -25
0 0 -131z"/>
<path d="M2970 650 c0 -123 1 -130 20 -130 18 0 20 7 20 70 0 67 1 71 26 80
14 6 30 8 35 4 5 -3 9 -39 9 -80 0 -67 2 -74 20 -74 18 0 20 7 20 89 0 112
-16 129 -92 96 -16 -6 -18 -1 -18 34 0 34 -3 41 -20 41 -19 0 -20 -7 -20 -130z"/>
<path d="M110 720 c0 -11 -4 -20 -10 -20 -5 0 -10 -7 -10 -15 0 -8 5 -15 10
-15 6 0 10 -28 10 -65 0 -68 12 -85 59 -85 28 0 28 36 1 43 -17 4 -20 14 -20
56 0 39 4 51 15 51 8 0 15 7 15 15 0 8 -7 15 -15 15 -8 0 -15 9 -15 20 0 13
-7 20 -20 20 -13 0 -20 -7 -20 -20z"/>
<path d="M590 720 c0 -11 -4 -20 -10 -20 -5 0 -10 -7 -10 -15 0 -8 5 -15 10
-15 6 0 10 -28 10 -65 0 -68 12 -85 59 -85 28 0 28 36 1 43 -17 4 -20 14 -20
56 0 39 4 51 15 51 8 0 15 7 15 15 0 8 -7 15 -15 15 -8 0 -15 9 -15 20 0 13
-7 20 -20 20 -13 0 -20 -7 -20 -20z"/>
<path d="M1930 720 c0 -11 -4 -20 -10 -20 -5 0 -10 -7 -10 -15 0 -8 5 -15 10
-15 6 0 10 -28 10 -65 0 -68 12 -85 59 -85 28 0 28 36 1 43 -17 4 -20 14 -20
56 0 39 4 51 15 51 8 0 15 7 15 15 0 8 -7 15 -15 15 -8 0 -15 9 -15 20 0 13
-7 20 -20 20 -13 0 -20 -7 -20 -20z"/>
<path d="M239 701 c-21 -17 -24 -28 -24 -80 1 -70 13 -89 66 -97 26 -4 41 0
62 16 15 12 27 28 27 36 0 19 -29 18 -51 -2 -22 -20 -59 -10 -59 17 0 16 7 19
56 19 l57 0 -6 42 c-3 23 -14 48 -23 55 -26 19 -78 16 -105 -6z m89 -43 c3
-15 -4 -18 -32 -18 -34 0 -47 15 -29 34 13 13 58 1 61 -16z"/>
<path d="M420 700 c-23 -23 -24 -29 -11 -63 7 -17 21 -27 48 -34 28 -6 38 -14
38 -28 0 -25 -28 -31 -48 -10 -19 19 -47 20 -47 1 0 -51 129 -57 145 -6 10 30
-12 69 -42 76 -48 10 -53 13 -53 29 0 17 45 21 55 5 11 -17 35 -11 35 10 0 41
-85 55 -120 20z"/>
<path d="M764 705 c3 -9 16 -54 28 -100 27 -106 48 -114 74 -30 10 30 21 52
24 48 4 -5 13 -29 20 -55 9 -35 18 -48 31 -48 14 0 22 14 34 58 9 31 21 70 26
86 14 46 12 58 -13 54 -19 -2 -25 -12 -32 -55 -5 -29 -12 -53 -16 -53 -4 0
-13 24 -21 52 -20 76 -41 75 -64 -4 l-19 -63 -15 63 c-13 55 -17 62 -39 62
-17 0 -23 -4 -18 -15z"/>
<path d="M1040 705 c-18 -22 -24 -97 -11 -138 14 -42 43 -55 77 -36 19 10 27
10 36 1 31 -31 38 -13 38 88 l0 100 -64 0 c-44 0 -67 -5 -76 -15z m90 -74 c0
-41 -4 -51 -20 -56 -30 -10 -40 2 -40 49 0 49 5 56 37 56 21 0 23 -4 23 -49z"/>
<path d="M1310 620 l0 -100 25 0 c24 0 25 2 25 74 0 67 2 75 21 81 30 10 39
-9 39 -87 0 -61 2 -68 20 -68 18 0 20 7 20 70 0 59 3 71 20 80 33 17 40 3 40
-76 0 -68 2 -74 20 -74 20 0 21 5 18 91 -3 108 -14 122 -72 101 -28 -10 -39
-10 -55 0 -16 9 -25 9 -47 -1 -20 -9 -30 -9 -32 -2 -2 6 -12 11 -23 11 -17 0
-19 -8 -19 -100z"/>
<path d="M1610 705 c-18 -22 -24 -97 -11 -138 14 -42 43 -55 77 -36 19 10 27
10 36 1 31 -31 38 -13 38 88 l0 100 -64 0 c-44 0 -67 -5 -76 -15z m90 -74 c0
-41 -4 -51 -20 -56 -30 -10 -40 2 -40 49 0 49 5 56 37 56 21 0 23 -4 23 -49z"/>
<path d="M1790 618 c0 -91 1 -98 20 -98 18 0 20 7 20 75 l0 76 30 6 c19 3 30
12 30 22 0 14 -10 17 -50 17 l-50 0 0 -98z"/>
<path d="M2130 700 c-23 -23 -24 -29 -11 -63 7 -17 21 -27 48 -34 28 -6 38
-14 38 -28 0 -25 -28 -31 -48 -10 -19 19 -47 20 -47 1 0 -51 129 -57 145 -6
10 30 -12 69 -42 76 -48 10 -53 13 -53 29 0 17 45 21 55 5 11 -17 35 -11 35
10 0 41 -85 55 -120 20z"/>
<path d="M2309 701 c-21 -17 -24 -28 -24 -80 1 -70 13 -89 66 -97 26 -4 41 0
62 16 15 12 27 28 27 36 0 19 -29 18 -51 -2 -22 -20 -59 -10 -59 17 0 16 7 19
56 19 l57 0 -6 42 c-3 23 -14 48 -23 55 -26 19 -78 16 -105 -6z m89 -43 c3
-15 -4 -18 -32 -18 -34 0 -47 15 -29 34 13 13 58 1 61 -16z"/>
<path d="M2480 705 c-18 -22 -24 -97 -11 -138 14 -42 43 -55 77 -36 19 10 27
10 36 1 31 -31 38 -13 38 88 l0 100 -64 0 c-44 0 -67 -5 -76 -15z m90 -74 c0
-41 -4 -51 -20 -56 -30 -10 -40 2 -40 49 0 49 5 56 37 56 21 0 23 -4 23 -49z"/>
<path d="M2660 618 c0 -91 1 -98 20 -98 18 0 20 7 20 75 l0 76 30 6 c19 3 30
12 30 22 0 14 -10 17 -50 17 l-50 0 0 -98z"/>
<path d="M2814 712 c-21 -14 -34 -51 -34 -97 0 -63 35 -100 87 -92 42 7 63 23
63 48 0 23 -35 26 -44 3 -10 -25 -49 -13 -60 19 -15 41 3 81 37 85 15 2 27 -1
27 -7 0 -6 9 -11 20 -11 25 0 26 22 2 43 -19 17 -78 23 -98 9z"/>
</g>
</svg>
