<?xml version="1.0" standalone="no"?>
<!DOCTYPE svg PUBLIC "-//W3C//DTD SVG 20010904//EN"
 "http://www.w3.org/TR/2001/REC-SVG-20010904/DTD/svg10.dtd">
<svg version="1.0" xmlns="http://www.w3.org/2000/svg"
 width="325.000000pt" height="260.000000pt" viewBox="0 0 325.000000 260.000000"
 preserveAspectRatio="xMidYMid meet">

<g transform="translate(0.000000,260.000000) scale(0.100000,-0.100000)"
fill="#000000" stroke="none">
<path d="M1612 2117 l3 -70 54 -14 c162 -41 312 -197 337 -351 l7 -42 70 0 70
0 -6 45 c-33 239 -239 447 -490 494 l-48 9 3 -71z"/>
<path d="M1470 1980 c-57 -12 -135 -51 -183 -90 -132 -110 -176 -321 -99 -481
39 -82 109 -149 200 -192 60 -28 77 -32 157 -32 96 0 154 16 229 63 l39 24 63
-63 c52 -52 62 -67 58 -88 -4 -23 13 -44 129 -160 110 -109 138 -132 155 -127
27 9 82 72 82 94 0 10 -60 78 -134 151 -115 113 -137 131 -153 122 -15 -8 -29
1 -84 56 l-67 65 29 47 c84 131 79 315 -11 446 -86 125 -261 196 -410 165z
m142 -81 c71 -15 126 -48 181 -109 54 -60 77 -122 77 -207 0 -123 -62 -224
-172 -283 -56 -31 -71 -34 -143 -35 -95 0 -169 29 -232 92 -66 66 -88 123 -88
228 0 78 4 97 27 140 25 49 94 121 136 144 24 13 119 39 144 40 9 1 41 -4 70
-10z"/>
<path d="M950 1508 c1 -80 74 -244 145 -325 84 -96 222 -171 363 -198 l32 -7
0 69 0 68 -70 22 c-131 41 -229 125 -289 245 -17 32 -33 79 -37 104 l-6 44
-69 0 c-65 0 -69 -1 -69 -22z"/>
<path d="M80 655 c0 -18 5 -25 20 -25 18 0 20 -7 20 -55 l0 -55 35 0 35 0 0
55 c0 42 3 55 15 55 9 0 15 9 15 25 0 24 -2 25 -70 25 -68 0 -70 -1 -70 -25z"/>
<path d="M240 600 l0 -80 60 0 c57 0 60 1 60 25 0 21 -5 25 -32 26 -31 2 -31
2 -5 6 18 3 27 10 27 23 0 13 -9 20 -27 23 -26 4 -26 4 5 6 27 1 32 5 32 26 0
24 -3 25 -60 25 l-60 0 0 -80z"/>
<path d="M403 670 c-23 -9 -40 -51 -29 -69 4 -6 25 -15 47 -21 23 -6 37 -15
33 -21 -4 -7 -10 -7 -17 0 -16 16 -70 14 -65 -1 13 -40 117 -46 138 -8 15 29
2 49 -41 60 -51 14 -50 22 1 14 32 -5 40 -4 40 9 0 20 -38 47 -65 46 -11 0
-30 -4 -42 -9z"/>
<path d="M520 655 c0 -18 5 -25 20 -25 18 0 20 -7 20 -55 l0 -55 35 0 35 0 0
55 c0 42 3 55 15 55 9 0 15 9 15 25 0 24 -2 25 -70 25 -68 0 -70 -1 -70 -25z"/>
<path d="M744 658 c3 -13 11 -49 17 -81 l12 -58 36 3 c33 3 36 6 41 38 4 27 7
31 13 17 4 -10 7 -27 7 -38 0 -15 7 -19 35 -19 31 0 35 3 44 38 6 20 13 56 17
80 6 40 5 42 -19 42 -21 0 -27 -7 -35 -37 -8 -30 -10 -33 -11 -13 -2 38 -15
52 -47 48 -25 -3 -30 -8 -34 -38 -4 -27 -7 -31 -13 -17 -4 10 -7 27 -7 38 0
15 -7 19 -31 19 -28 0 -31 -3 -25 -22z"/>
<path d="M1000 608 c-12 -40 -24 -76 -26 -79 -2 -3 37 -6 86 -6 50 0 90 3 90
7 0 3 -11 37 -23 76 l-24 69 -41 3 -41 3 -21 -73z m74 0 c5 -23 3 -28 -13 -28
-14 0 -19 5 -16 15 14 42 16 48 19 44 2 -2 6 -16 10 -31z"/>
<path d="M1170 600 l0 -80 60 0 c57 0 60 1 60 25 0 21 -5 25 -30 25 -30 0 -30
1 -30 55 0 54 0 55 -30 55 l-30 0 0 -80z"/>
<path d="M1310 600 c0 -78 1 -80 24 -80 22 0 25 5 28 43 l3 42 13 -42 c10 -34
17 -43 36 -43 17 0 25 8 33 38 l10 37 2 -37 c1 -35 3 -38 31 -38 l30 0 0 80 0
80 -45 0 c-43 0 -44 -1 -51 -36 -7 -39 -24 -29 -24 14 0 19 -5 22 -45 22 l-45
0 0 -80z"/>
<path d="M1560 608 c-12 -40 -24 -76 -26 -79 -2 -3 37 -6 86 -6 50 0 90 3 90
7 0 3 -11 37 -23 76 l-24 69 -41 3 -41 3 -21 -73z m74 0 c5 -23 3 -28 -13 -28
-14 0 -19 5 -16 15 14 42 16 48 19 44 2 -2 6 -16 10 -31z"/>
<path d="M1730 600 l0 -80 30 0 c25 0 30 4 30 25 0 14 4 25 9 25 5 0 12 -11
15 -25 5 -20 13 -25 36 -25 32 0 37 11 20 54 -13 35 -3 56 26 56 22 0 24 -4
24 -55 l0 -55 35 0 35 0 0 55 c0 42 3 55 15 55 9 0 15 9 15 25 0 24 -2 25 -70
25 -63 0 -70 -2 -70 -20 l0 -20 -20 20 c-15 15 -33 20 -75 20 l-55 0 0 -80z
m88 28 c-6 -18 -28 -21 -28 -4 0 9 7 16 16 16 9 0 14 -5 12 -12z"/>
<path d="M2143 670 c-23 -9 -40 -51 -29 -69 4 -6 25 -15 47 -21 23 -6 37 -15
33 -21 -4 -7 -10 -7 -17 0 -16 16 -70 14 -65 -1 13 -40 117 -46 138 -8 15 29
2 49 -41 60 -51 14 -50 22 1 14 32 -5 40 -4 40 9 0 20 -38 47 -65 46 -11 0
-30 -4 -42 -9z"/>
<path d="M2280 600 l0 -80 150 2 c83 1 150 5 150 8 0 3 -11 37 -23 76 l-24 69
-41 3 -41 3 -22 -73 c-12 -40 -24 -65 -27 -55 -2 11 -14 17 -35 18 -30 2 -31
2 -4 6 18 3 27 10 27 23 0 13 -9 20 -27 23 -26 4 -26 4 5 6 27 1 32 5 32 26 0
24 -3 25 -60 25 l-60 0 0 -80z m224 8 c5 -23 3 -28 -13 -28 -14 0 -19 5 -16
15 14 42 16 48 19 44 2 -2 6 -16 10 -31z"/>
<path d="M2600 600 l0 -80 30 0 c25 0 30 4 30 25 0 14 4 25 9 25 5 0 12 -11
15 -25 5 -20 13 -25 36 -25 33 0 37 11 20 55 -7 18 -7 33 0 45 18 34 -20 60
-85 60 l-55 0 0 -80z m88 28 c-6 -18 -28 -21 -28 -4 0 9 7 16 16 16 9 0 14 -5
12 -12z"/>
<path d="M2800 667 c-53 -27 -51 -109 4 -136 36 -17 83 -5 105 28 l16 24 -48
-5 c-46 -5 -47 -5 -47 23 0 28 1 29 40 23 32 -5 40 -4 40 9 0 20 -38 47 -65
47 -11 0 -31 -6 -45 -13z"/>
<path d="M2940 600 l0 -80 30 0 c27 0 30 3 30 30 0 17 5 30 10 30 6 0 10 -13
10 -30 0 -28 3 -30 35 -30 l35 0 0 80 0 80 -30 0 c-25 0 -30 -4 -30 -25 0 -16
-6 -25 -15 -25 -9 0 -15 9 -15 25 0 21 -5 25 -30 25 l-30 0 0 -80z"/>
</g>
</svg>
