<?xml version="1.0" standalone="no"?>
<!DOCTYPE svg PUBLIC "-//W3C//DTD SVG 20010904//EN"
 "http://www.w3.org/TR/2001/REC-SVG-20010904/DTD/svg10.dtd">
<svg version="1.0" xmlns="http://www.w3.org/2000/svg"
 width="325.000000pt" height="260.000000pt" viewBox="0 0 325.000000 260.000000"
 preserveAspectRatio="xMidYMid meet">

<g transform="translate(0.000000,260.000000) scale(0.100000,-0.100000)"
fill="#000000" stroke="none">
<path d="M1223 2216 c-91 -29 -166 -98 -212 -195 l-26 -56 0 -380 0 -380 27
-55 c37 -75 100 -137 178 -174 l65 -31 370 0 370 0 65 31 c78 37 141 99 178
174 l27 55 0 380 0 380 -27 57 c-35 76 -98 142 -167 175 l-56 28 -375 2 c-289
2 -385 -1 -417 -11z m-21 -293 c8 -10 84 -152 167 -315 162 -315 173 -330 242
-332 50 -1 90 29 109 83 l15 42 -83 162 c-45 89 -82 169 -82 178 0 25 25 41
57 37 25 -3 36 -18 105 -153 43 -82 83 -168 89 -190 24 -86 -27 -192 -114
-237 -84 -42 -208 -16 -261 56 -40 54 -326 615 -326 639 0 45 52 64 82 30z
m513 -4 c57 -27 82 -56 136 -163 26 -52 49 -85 57 -84 8 2 44 62 80 133 59
114 70 130 94 133 19 2 31 -3 43 -21 16 -24 14 -30 -54 -165 -77 -154 -102
-182 -163 -182 -59 0 -83 23 -144 136 -60 113 -84 134 -150 134 -28 0 -44 -8
-70 -34 -52 -52 -48 -81 41 -255 41 -80 75 -154 75 -162 0 -25 -25 -41 -57
-37 -25 3 -36 19 -107 153 -86 162 -100 217 -76 290 39 118 180 178 295 124z"/>
<path d="M92 757 c-15 -17 -6 -27 24 -27 23 0 23 -3 26 -112 2 -93 6 -113 18
-113 12 0 16 20 18 113 l3 112 25 0 c19 0 25 5 22 18 -3 13 -15 18 -64 20 -43
2 -64 -1 -72 -11z"/>
<path d="M277 764 c-4 -4 -7 -65 -7 -136 l0 -128 61 0 c52 0 60 2 57 18 -2 12
-15 18 -46 20 -42 3 -42 3 -42 43 0 38 1 39 36 39 28 0 35 3 32 18 -2 11 -14
18 -36 20 -29 3 -32 6 -32 38 0 34 0 34 46 34 38 0 45 3 42 18 -2 13 -15 18
-53 20 -28 2 -54 0 -58 -4z"/>
<path d="M462 759 c-20 -8 -42 -44 -42 -70 0 -5 20 -32 45 -58 51 -55 59 -91
20 -91 -16 0 -25 6 -25 15 0 15 -25 21 -33 8 -9 -15 12 -51 33 -58 52 -17 98
22 85 72 -3 14 -24 43 -46 65 -41 41 -50 74 -23 85 11 4 23 -2 35 -18 14 -19
21 -21 30 -12 9 9 8 17 -4 36 -18 29 -44 37 -75 26z"/>
<path d="M582 757 c-15 -17 -6 -27 24 -27 23 0 23 -3 26 -112 2 -93 6 -113 18
-113 12 0 16 20 18 113 l3 112 25 0 c19 0 25 5 22 18 -3 13 -15 18 -64 20 -43
2 -64 -1 -72 -11z"/>
<path d="M1026 763 c-3 -3 -6 -49 -6 -102 0 -103 -7 -125 -36 -119 -17 3 -19
15 -22 111 -2 86 -6 107 -17 107 -12 0 -15 -17 -15 -87 0 -112 -6 -135 -34
-131 -20 3 -21 10 -24 111 -2 96 -5 108 -20 105 -14 -3 -17 -18 -20 -98 -2
-56 2 -105 9 -122 13 -33 50 -45 84 -30 15 7 26 8 30 2 4 -6 19 -10 35 -10 49
0 60 29 60 152 0 98 -6 128 -24 111z"/>
<path d="M1128 758 c-37 -13 -50 -60 -46 -168 2 -67 6 -85 18 -85 11 0 16 13
18 48 3 48 4 48 35 45 31 -3 32 -5 35 -50 2 -34 7 -48 18 -48 21 0 20 206 -1
237 -18 26 -42 32 -77 21z m43 -38 c13 -8 19 -21 19 -45 0 -33 -2 -35 -35 -35
-33 0 -35 2 -35 33 0 18 5 38 12 45 15 15 15 15 39 2z"/>
<path d="M1422 759 c-33 -13 -43 -51 -40 -158 2 -77 6 -96 18 -96 12 0 16 20
18 107 2 89 5 107 20 113 31 11 42 -23 42 -127 0 -80 3 -98 15 -98 12 0 15 18
15 104 0 80 3 106 15 116 12 10 18 10 30 0 12 -10 15 -36 15 -116 0 -86 3
-104 15 -104 12 0 15 19 15 113 0 96 -3 116 -17 130 -22 19 -42 23 -69 14 -12
-4 -32 -3 -45 1 -14 5 -34 6 -47 1z"/>
<path d="M1678 758 c-37 -13 -50 -60 -46 -168 2 -67 6 -85 18 -85 11 0 16 13
18 48 3 48 4 48 35 45 31 -3 32 -5 35 -50 2 -34 7 -48 18 -48 21 0 20 206 -1
237 -18 26 -42 32 -77 21z m43 -38 c13 -8 19 -21 19 -45 0 -33 -2 -35 -35 -35
-33 0 -35 2 -35 33 0 18 5 38 12 45 15 15 15 15 39 2z"/>
<path d="M1818 764 c-5 -4 -8 -65 -8 -136 0 -107 2 -128 15 -128 12 0 15 13
15 60 0 52 2 60 19 60 26 0 38 -18 46 -72 5 -31 12 -48 21 -48 16 0 19 49 5
98 -7 24 -6 40 5 60 19 37 18 46 -9 77 -22 26 -94 45 -109 29z m85 -55 c16
-26 1 -49 -33 -49 -28 0 -30 3 -30 36 0 32 2 35 26 32 15 -2 32 -10 37 -19z"/>
<path d="M1972 757 c-15 -17 -6 -27 24 -27 23 0 23 -3 26 -112 2 -93 6 -113
18 -113 12 0 16 20 18 113 l3 112 25 0 c19 0 25 5 22 18 -3 13 -15 18 -64 20
-43 2 -64 -1 -72 -11z"/>
<path d="M2263 759 c-23 -8 -43 -38 -43 -64 0 -9 20 -38 45 -64 51 -55 59 -91
20 -91 -16 0 -25 6 -25 15 0 15 -25 21 -33 8 -9 -15 12 -51 33 -58 52 -17 98
22 85 72 -3 14 -24 43 -46 65 -41 41 -50 74 -23 85 11 4 23 -2 35 -18 14 -19
21 -21 30 -12 9 9 8 17 -4 36 -18 28 -44 37 -74 26z"/>
<path d="M2397 763 c-4 -3 -7 -64 -7 -135 l0 -128 60 0 c45 0 60 4 60 14 0 17
-22 26 -61 26 -27 0 -29 2 -29 40 0 39 1 40 36 40 28 0 35 3 32 18 -2 11 -14
18 -36 20 -29 3 -32 6 -32 38 0 34 0 34 45 34 32 0 45 4 45 14 0 8 -7 17 -16
20 -21 8 -89 8 -97 -1z"/>
<path d="M2578 758 c-37 -13 -50 -60 -46 -168 2 -67 6 -85 18 -85 11 0 16 13
18 48 3 48 4 48 35 45 31 -3 32 -5 35 -50 2 -34 7 -48 18 -48 21 0 20 206 -1
237 -18 26 -42 32 -77 21z m43 -38 c13 -8 19 -21 19 -45 0 -33 -2 -35 -35 -35
-33 0 -35 2 -35 33 0 18 5 38 12 45 15 15 15 15 39 2z"/>
<path d="M2718 764 c-5 -4 -8 -65 -8 -136 0 -107 2 -128 15 -128 12 0 15 13
15 60 0 52 2 60 19 60 26 0 38 -18 46 -72 5 -31 12 -48 21 -48 16 0 19 49 5
98 -7 24 -6 40 5 60 19 37 18 46 -9 77 -22 26 -94 45 -109 29z m85 -55 c16
-26 1 -49 -33 -49 -28 0 -30 3 -30 36 0 32 2 35 26 32 15 -2 32 -10 37 -19z"/>
<path d="M2909 757 c-28 -15 -37 -42 -38 -124 -1 -64 11 -112 32 -125 24 -15
66 -8 81 14 9 12 16 28 16 35 0 18 -27 16 -38 -3 -5 -9 -18 -14 -28 -12 -17 3
-19 14 -22 89 -2 75 0 87 15 93 12 5 23 0 35 -13 20 -26 38 -27 38 -3 0 38
-54 67 -91 49z"/>
<path d="M3046 763 c-3 -3 -6 -64 -6 -135 0 -107 2 -128 15 -128 12 0 15 13
15 61 l0 60 33 -3 c32 -3 32 -4 35 -60 2 -43 7 -58 17 -58 12 0 15 23 15 130
0 109 -2 130 -15 130 -11 0 -15 -12 -15 -50 l0 -50 -35 0 -35 0 0 49 c0 47 -9
68 -24 54z"/>
<path d="M1260 630 l0 -130 44 0 c46 0 69 16 45 31 -8 5 -24 9 -36 9 -22 0
-23 3 -23 110 0 91 -3 110 -15 110 -13 0 -15 -21 -15 -130z"/>
</g>
</svg>
